<svg xmlns="http://www.w3.org/2000/svg" viewBox="0 0 100 100">
  <rect width="100" height="100" rx="18" fill="#503264"/>
  <g fill="none" stroke="#FFFFFF" stroke-width="5" stroke-linecap="round" stroke-linejoin="round" transform="translate(50 52) scale(1.25) translate(-50 -56)">
    <path d="M47 44 C51 39 51 34 47 30 L52 26 C55 30 57 35 55 39 C54 41 55 43 57 44"/>
    <ellipse cx="50" cy="61" rx="7" ry="16.5"/>
    <path d="M46 44.6 C38 44 33 52 33 61 C33 70 38 77.6 46 77.4"/>
    <path d="M54 44.6 C62 44 67 52 67 61 C67 70 62 77.6 54 77.4"/>
    <path d="M42 44.4 C29 42.5 22 51 22 61 C22 71 29 79 42 77.6"/>
    <path d="M58 44.4 C71 42.5 78 51 78 61 C78 71 71 79 58 77.6"/>
  </g>
</svg>
